<?xml version="1.0" standalone="no"?>
<!DOCTYPE svg PUBLIC "-//W3C//DTD SVG 20010904//EN"
 "http://www.w3.org/TR/2001/REC-SVG-20010904/DTD/svg10.dtd">
<svg version="1.0" xmlns="http://www.w3.org/2000/svg"
 width="1070.000000pt" height="1070.000000pt" viewBox="0 0 1070.000000 1070.000000"
 preserveAspectRatio="xMidYMid meet">
<metadata>
Created by potrace 1.11, written by Peter Selinger 2001-2013
</metadata>
<g transform="translate(0.000000,1070.000000) scale(0.100000,-0.100000)"
fill="#000000" stroke="none">
<path d="M3468 7125 c-3 -3 -92 -14 -163 -21 -39 -3 -79 -9 -121 -19 -12 -3
-39 -7 -60 -10 -167 -25 -588 -161 -819 -265 -146 -65 -415 -153 -505 -165
-118 -15 -195 -39 -214 -66 -12 -17 -12 -24 0 -49 15 -30 48 -42 94 -36 66 9
120 19 170 33 30 9 57 16 60 16 9 0 193 64 248 86 29 11 106 46 172 76 185 84
527 215 600 230 8 2 51 12 95 23 44 11 100 24 125 28 25 4 47 8 50 9 3 1 32 5
65 9 33 5 69 10 80 12 117 22 605 22 745 0 391 -60 622 -219 702 -481 17 -56
21 -97 21 -205 0 -74 -2 -153 -6 -175 -10 -63 -18 -98 -22 -105 -2 -4 -7 -22
-10 -41 -7 -42 -67 -221 -96 -289 l-21 -49 -87 -26 c-119 -36 -261 -85 -293
-102 -15 -7 -31 -14 -35 -14 -49 -7 -351 -163 -602 -310 -67 -39 -279 -183
-380 -257 -307 -228 -649 -555 -822 -787 -24 -33 -47 -62 -50 -65 -13 -10
-137 -206 -178 -281 -111 -204 -140 -391 -70 -455 30 -27 168 -28 257 -2 77
23 247 102 335 154 161 97 402 266 612 429 128 100 153 120 219 180 18 17 68
62 112 100 133 119 339 328 497 505 7 8 35 44 63 80 27 36 51 67 54 70 58 58
273 387 376 575 66 120 63 118 141 120 37 0 72 -1 78 -4 5 -3 21 -6 34 -7 57
-7 98 -48 107 -107 13 -96 1 -306 -21 -361 -6 -17 -13 -54 -14 -82 -2 -47 0
-53 34 -82 19 -18 40 -32 45 -32 5 0 28 -13 52 -28 69 -45 104 -55 197 -55
142 0 266 43 391 136 133 99 251 257 256 341 1 27 -3 61 -9 75 -33 79 -126
164 -194 179 -42 9 -144 8 -213 -2 -99 -16 -240 -101 -370 -223 -19 -18 -37
-33 -40 -33 -3 0 -5 46 -6 103 -1 84 -5 109 -23 145 -46 90 -115 126 -266 137
-32 3 -60 7 -62 9 -3 2 3 26 12 53 9 26 18 55 21 63 2 8 14 52 28 97 14 46 27
95 29 110 3 16 10 48 15 73 62 278 5 549 -151 712 -73 76 -135 122 -232 171
-70 36 -224 91 -280 101 -16 3 -57 10 -90 16 -33 6 -80 13 -105 16 -25 3 -58
8 -75 10 -33 6 -481 14 -487 9z m1101 -1641 c-17 -33 -37 -66 -43 -74 -6 -8
-20 -31 -31 -50 -48 -88 -276 -420 -287 -420 -5 0 -8 -6 -8 -14 0 -8 -3 -16
-7 -18 -5 -1 -28 -28 -53 -58 -25 -30 -52 -62 -60 -71 -8 -9 -42 -47 -75 -85
-107 -122 -379 -390 -512 -501 -27 -24 -61 -53 -74 -65 -14 -13 -42 -36 -63
-53 -21 -16 -48 -38 -60 -49 -45 -39 -285 -216 -366 -269 -47 -31 -90 -61 -97
-67 -7 -5 -14 -10 -17 -10 -2 0 -34 -18 -71 -41 -74 -45 -259 -140 -278 -143
-6 -1 -16 -4 -22 -7 -43 -26 -189 -54 -218 -43 -48 18 12 214 119 389 30 49
61 99 67 109 43 71 182 250 270 349 149 167 292 304 463 446 49 41 94 80 99
86 22 25 398 288 500 350 121 73 440 235 550 279 147 59 298 106 303 95 1 -3
-12 -33 -29 -65z m1209 -35 c31 -23 64 -63 82 -100 18 -34 18 -37 1 -75 -17
-37 -92 -134 -146 -189 -67 -66 -200 -148 -263 -160 -11 -2 -35 -7 -53 -13
-44 -11 -126 -7 -145 9 -8 6 -14 8 -14 5 0 -19 -76 54 -91 89 -31 67 -25 97
30 162 151 180 320 291 466 306 35 3 108 -16 133 -34z"/>
<path d="M9160 6500 c-24 -24 -25 -37 -7 -80 13 -28 11 -39 -10 -97 -23 -63
-61 -135 -121 -230 -99 -156 -168 -289 -195 -374 -9 -28 -14 -81 -13 -133 1
-83 3 -89 29 -112 21 -18 33 -21 50 -15 21 8 22 13 20 101 -2 77 2 103 23 158
29 76 70 153 145 267 169 258 222 423 165 509 -20 32 -58 34 -86 6z"/>
<path d="M8050 6290 c-11 -11 -20 -27 -20 -36 0 -23 40 -55 61 -49 73 24 -26
-256 -247 -695 -103 -205 -163 -302 -232 -372 -72 -75 -129 -95 -171 -60 -27
21 -32 47 -31 142 0 86 5 115 26 185 18 56 121 349 134 380 68 158 95 214 115
235 44 47 39 98 -11 114 -47 15 -77 -24 -134 -169 -17 -44 -37 -93 -44 -110
-8 -16 -19 -48 -26 -70 -7 -22 -16 -44 -21 -49 -5 -6 -9 -16 -9 -24 0 -8 -6
-28 -14 -45 -24 -55 -78 -228 -97 -312 -25 -111 -20 -239 10 -289 12 -19 35
-45 50 -55 27 -19 104 -39 126 -32 6 2 23 5 39 7 49 6 108 57 192 166 48 62
54 67 54 43 0 -45 28 -79 90 -108 32 -15 69 -30 82 -33 92 -19 122 -22 193
-20 63 2 92 9 137 30 99 48 165 130 169 212 3 46 -16 84 -76 158 -24 30 -53
72 -65 93 -18 35 -19 39 -3 63 24 37 67 74 166 141 110 76 123 94 103 142 -21
50 -47 62 -80 36 -14 -11 -24 -24 -21 -28 7 -13 -15 -35 -105 -102 -47 -35
-99 -77 -115 -94 -83 -82 -71 -166 46 -305 52 -62 62 -93 45 -133 -42 -103
-205 -156 -357 -118 -85 21 -115 42 -129 88 -6 21 -17 49 -23 61 -10 21 -2 42
66 176 42 83 77 155 77 160 0 5 6 17 13 25 8 9 37 72 66 141 29 69 56 134 61
145 28 64 61 187 66 246 l7 69 -36 35 c-43 42 -94 48 -127 15z"/>
<path d="M6532 5814 c-12 -8 -22 -25 -22 -38 0 -39 22 -57 70 -59 44 -2 45 -1
46 31 1 22 -7 40 -24 57 -29 29 -40 31 -70 9z"/>
<path d="M6800 5506 c-73 -27 -87 -35 -130 -74 -77 -69 -129 -207 -100 -262
15 -28 61 -26 89 3 20 22 23 36 21 106 -2 67 108 148 203 150 40 1 98 -21 117
-44 17 -20 13 -217 -6 -246 -2 -3 -6 -35 -10 -71 -7 -71 4 -92 42 -78 15 6 27
29 42 82 28 93 33 124 38 224 4 99 -16 148 -78 189 -35 23 -55 28 -117 31 -45
1 -91 -3 -111 -10z"/>
<path d="M8751 5294 c-12 -15 -21 -36 -22 -48 0 -11 -2 -30 -5 -41 -38 -188
-36 -208 20 -224 50 -13 64 0 65 66 0 32 2 69 5 83 13 60 20 107 20 138 -1 56
-48 70 -83 26z"/>
<path d="M6235 5180 c-31 -12 -61 -50 -91 -113 -32 -72 -37 -120 -11 -125 41
-8 68 8 88 55 11 25 36 61 55 80 32 30 35 38 30 68 -4 19 -10 35 -14 36 -4 0
-14 2 -22 3 -8 2 -24 0 -35 -4z"/>
</g>
</svg>
