<?xml version="1.0" encoding="UTF-8" standalone="no"?>
<!-- Created with Inkscape (http://www.inkscape.org/) -->

<svg
   xmlns:dc="http://purl.org/dc/elements/1.1/"
   xmlns:cc="http://creativecommons.org/ns#"
   xmlns:rdf="http://www.w3.org/1999/02/22-rdf-syntax-ns#"
   xmlns:svg="http://www.w3.org/2000/svg"
   xmlns="http://www.w3.org/2000/svg"
   xmlns:sodipodi="http://sodipodi.sourceforge.net/DTD/sodipodi-0.dtd"
   xmlns:inkscape="http://www.inkscape.org/namespaces/inkscape"
   inkscape:export-ydpi="96"
   inkscape:export-xdpi="96"
   inkscape:export-filename="/home/peter/projects/joinus/assets/join-us.png"
   sodipodi:docname="join-us-white.svg"
   inkscape:version="0.92.4 (unknown)"
   id="svg8"
   version="1.1"
   viewBox="0 0 283.17346 148.63553"
   height="148.63553mm"
   width="283.17346mm">
  <defs
     id="defs2">
    <clipPath
       clipPathUnits="userSpaceOnUse"
       id="clipPath3972">
      <rect
         style="fill:#f9f9f9;stroke-width:0.26458332"
         id="rect3974"
         width="225.04095"
         height="111.71867"
         x="27.196796"
         y="110.62462" />
    </clipPath>
    <filter
       style="color-interpolation-filters:sRGB;"
       inkscape:label="Invert"
       id="filter49">
      <feColorMatrix
         values="1 0 0 0 0 0 1 0 0 0 0 0 1 0 0 -0.21 -0.72 -0.07 2 0 "
         result="color2"
         id="feColorMatrix47" />
    </filter>
  </defs>
  <sodipodi:namedview
     id="base"
     pagecolor="#ffffff"
     bordercolor="#666666"
     borderopacity="1.0"
     inkscape:pageopacity="0.0"
     inkscape:pageshadow="2"
     inkscape:zoom="0.7"
     inkscape:cx="484.19695"
     inkscape:cy="392.61001"
     inkscape:document-units="mm"
     inkscape:current-layer="layer1"
     showgrid="false"
     inkscape:window-width="1853"
     inkscape:window-height="1018"
     inkscape:window-x="67"
     inkscape:window-y="34"
     inkscape:window-maximized="1" />
  <metadata
     id="metadata5">
    <rdf:RDF>
      <cc:Work
         rdf:about="">
        <dc:format>image/svg+xml</dc:format>
        <dc:type
           rdf:resource="http://purl.org/dc/dcmitype/StillImage" />
        <dc:title></dc:title>
      </cc:Work>
    </rdf:RDF>
  </metadata>
  <g
     inkscape:label="Layer 1"
     inkscape:groupmode="layer"
     id="layer1"
     transform="translate(-3.2787619,-92.160226)">
    <g
       transform="translate(1.8898829,3.0238095)"
       style="opacity:1;filter:url(#filter49)"
       clip-path="url(#clipPath3972)"
       id="g3951"
       inkscape:export-xdpi="96"
       inkscape:export-ydpi="96">
      <path
         style="opacity:1;fill:#ffffff;stroke-width:0.25452834"
         d="m 82.876905,267.99305 c 44.989465,-0.0353 118.608585,-0.0353 163.598055,0 44.98946,0.0353 8.17989,0.0642 -81.79903,0.0642 -89.978927,0 -126.788488,-0.0289 -81.799025,-0.0642 z M 60.773138,219.215 c -2.573179,-0.78708 -2.459518,-5.5947 0.261172,-11.04708 1.516975,-3.04007 4.268717,-7.38103 6.182545,-9.75314 0.289451,-0.35876 0.813623,-1.03619 1.164829,-1.50541 3.193219,-4.26619 10.881572,-12.03539 15.560118,-15.72374 0.619331,-0.48824 1.538243,-1.24183 2.042031,-1.67463 1.138979,-0.9785 6.106467,-4.61834 8.834069,-6.47301 4.6994,-3.19544 11.348458,-6.99715 16.614278,-9.4995 4.74646,-2.25553 8.71615,-3.71916 13.68898,-5.0471 1.33144,-0.35555 1.4737,-0.46639 1.87857,-1.46367 1.75651,-4.32664 2.87578,-8.07108 3.46892,-11.60497 0.41112,-2.44942 0.40773,-7.05542 -0.007,-9.00411 -1.41272,-6.64413 -6.4248,-11.17163 -14.57175,-13.16296 -3.99801,-0.97721 -5.7056,-1.16963 -11.8906,-1.33986 -9.219682,-0.25374 -17.145733,0.76452 -25.227272,3.24096 -2.543814,0.77951 -9.240381,3.36441 -11.92323,4.60243 -0.772653,0.35654 -2.036994,0.93872 -2.809647,1.29374 -5.044419,2.31779 -9.939343,3.99245 -14.175942,4.84992 -3.185894,0.64481 -4.082049,0.50717 -4.681918,-0.71907 -0.288258,-0.58923 -0.281864,-0.78218 0.0422,-1.2733 0.449837,-0.68175 2.824818,-1.37299 5.844849,-1.70117 2.448259,-0.26605 7.169378,-1.82949 13.747851,-4.55272 6.662629,-2.75807 8.328039,-3.36224 13.271195,-4.81444 11.588111,-3.40436 22.108114,-4.23887 33.169944,-2.63123 7.39034,1.07405 13.17229,3.56378 16.82713,7.24581 1.94828,1.96278 2.57703,2.86723 3.58527,5.15733 2.40319,5.45859 2.0848,12.4933 -0.9857,21.77868 -0.55074,1.66543 -1.00133,3.05067 -1.00133,3.07835 0,0.0277 1.03986,0.12358 2.31081,0.21317 3.75962,0.265 5.50634,1.27335 6.65956,3.84445 0.46131,1.02849 0.57252,1.75759 0.58839,3.85744 l 0.0196,2.58926 0.89398,-0.83685 c 1.75789,-1.64554 2.19454,-2.00368 3.95905,-3.24716 3.31923,-2.33912 5.50663,-3.10106 8.93979,-3.11398 2.18769,-0.009 2.73181,0.0772 3.79185,0.59541 2.71245,1.326 4.71916,4.33555 4.38543,6.57702 -0.0973,0.65339 -0.31962,1.3592 -0.49409,1.56845 -0.17447,0.20924 -0.6124,0.89406 -0.97317,1.52182 -0.36079,0.62775 -1.36126,1.90513 -2.22329,2.8386 -4.0878,4.4267 -9.24981,6.79435 -14.13374,6.48275 -2.28963,-0.14608 -3.14493,-0.42911 -4.5657,-1.51086 -0.51189,-0.38975 -1.10714,-0.70864 -1.32277,-0.70864 -0.21562,0 -0.80252,-0.38442 -1.30421,-0.85427 -0.79434,-0.74393 -0.91216,-1.00814 -0.91216,-2.0455 0,-0.65516 0.22093,-1.72598 0.49095,-2.3796 0.37251,-0.90165 0.52662,-2.07575 0.63874,-4.86613 0.2073,-5.15911 -0.2404,-6.58558 -2.30349,-7.33945 -1.02768,-0.37553 -4.7442,-0.51736 -5.52317,-0.21077 -0.24152,0.0951 -1.01168,1.3058 -1.71148,2.69055 -2.98216,5.90113 -8.77347,14.32317 -14.06015,20.44707 -4.30107,4.98219 -12.06336,12.48319 -17.992639,17.38696 -5.840069,4.83 -14.73448,11.13255 -19.94616,14.13378 -2.337934,1.34635 -5.7939,2.94589 -7.827067,3.62264 -1.857125,0.61815 -5.057616,0.86613 -6.29475,0.48773 z m 5.727673,-2.92992 c 13.123379,-4.3347 36.552639,-23.38755 48.824109,-39.70416 4.07724,-5.42124 10.13589,-15.14446 9.70395,-15.57338 -0.16813,-0.16695 -5.4218,1.58353 -8.37235,2.78959 -2.8532,1.16628 -8.62044,4.03771 -12.5157,6.23137 -2.7144,1.52867 -7.959371,5.00354 -8.130945,5.38689 -0.04683,0.10462 -0.198407,0.19022 -0.336842,0.19022 -0.209661,0 -6.202108,4.37726 -6.602134,4.82262 -0.07024,0.0783 -1.50214,1.2793 -3.181999,2.66913 -5.79706,4.79614 -12.261956,11.55919 -16.512072,17.27359 -1.515123,2.03712 -5.592748,8.47037 -5.592748,8.82363 0,0.072 -0.278525,0.73328 -0.618946,1.46947 -1.132535,2.44922 -1.777764,5.59542 -1.25415,6.11537 0.38158,0.37891 2.702958,0.12889 4.589827,-0.49434 z m 81.732099,-38.76133 c 2.4893,-0.89725 4.32142,-2.10392 6.5857,-4.33748 1.9521,-1.92563 3.98262,-4.83133 3.98262,-5.69923 0,-0.21678 -0.40583,-1.03841 -0.90182,-1.82583 -2.55252,-4.0522 -7.80527,-3.54045 -13.60741,1.32571 -1.0262,0.86064 -2.67041,2.49565 -3.65382,3.63334 -1.6901,1.95526 -1.77987,2.12188 -1.63948,3.04294 0.6293,4.12872 4.26884,5.65029 9.23421,3.86055 z m 16.95885,-0.3879 c -0.32708,-0.20536 -0.2952,-0.47498 0.23604,-1.9963 1.09058,-3.123 2.60346,-4.70492 4.02702,-4.21076 0.58055,0.20154 0.72724,0.42031 0.79113,1.17992 0.0677,0.80483 -0.0207,0.98345 -0.64579,1.30442 -0.65449,0.33609 -1.85916,2.21737 -1.85916,2.90338 0,0.39503 -1.04463,1.06524 -1.65323,1.06068 -0.28482,-0.002 -0.68802,-0.11074 -0.89601,-0.24134 z m 34.91239,-1.07711 c -3.75559,-0.98919 -4.35754,-5.99737 -1.68546,-14.02274 1.55032,-4.65621 4.67914,-12.75601 5.74387,-14.86954 0.80449,-1.59693 1.91707,-1.97224 2.91349,-0.9828 0.74671,0.7415 0.65037,1.65785 -0.24328,2.31394 -0.47901,0.35168 -0.99986,1.16408 -1.42768,2.22692 -0.37045,0.92029 -0.83429,2.01568 -1.03074,2.43417 -0.6305,1.34313 -2.43356,6.23014 -3.74319,10.14551 -1.18185,3.53334 -1.27517,3.99596 -1.30904,6.48961 -0.0405,2.98861 0.22319,3.81893 1.36192,4.28732 1.77335,0.72941 4.70962,-1.84673 7.38786,-6.48176 3.05304,-5.28366 7.61052,-14.98245 9.19888,-19.57612 1.02068,-2.95194 1.0686,-5.05998 0.0929,-4.09119 -0.21208,0.21059 -0.45823,0.1145 -0.94506,-0.36893 -0.77382,-0.7684 -0.82092,-1.19224 -0.2113,-1.90157 1.18027,-1.37336 3.93227,-0.31563 4.30445,1.6544 0.53203,2.81617 -2.49485,10.76942 -8.32735,21.88039 -1.33754,2.54798 -1.38342,2.69739 -0.95784,3.11862 0.25798,0.25536 0.44699,0.82291 0.44699,1.34227 0,1.62391 1.95928,2.68413 5.63953,3.05171 4.63469,0.46287 9.04964,-3.04622 7.21417,-5.73398 -0.23555,-0.34492 -0.80496,-1.04967 -1.26538,-1.5661 -2.2284,-2.49953 -2.91893,-4.51068 -2.13357,-6.21382 0.56052,-1.21555 1.59419,-2.19056 4.61759,-4.35556 1.88934,-1.35294 2.38587,-1.83484 2.32499,-2.25658 -0.0995,-0.68902 0.98542,-1.43676 1.73969,-1.19903 0.70764,0.22302 1.39076,1.66309 1.18155,2.49081 -0.10994,0.43494 -0.80221,1.06708 -2.1417,1.95566 -3.3351,2.2124 -4.40277,3.05774 -5.04221,3.9922 -0.58167,0.85002 -0.59407,0.94547 -0.23398,1.80128 0.20914,0.49703 0.96906,1.57593 1.68871,2.39755 1.53903,1.75709 2.2468,3.03689 2.2468,4.06272 0,2.85862 -2.26073,5.32175 -5.97069,6.50521 -2.4931,0.79527 -7.43041,0.11156 -10.00224,-1.38509 -1.39205,-0.8101 -1.90665,-1.5227 -1.90665,-2.6403 v -0.87062 l -0.98193,1.49774 c -1.33277,2.03287 -3.40303,4.08979 -4.70869,4.67836 -1.17392,0.52919 -2.32879,0.5862 -3.8355,0.18934 z m 33.79125,-0.19949 c -0.60178,-0.59758 -0.64051,-1.41566 -0.15657,-3.30741 0.19485,-0.76169 0.43417,-2.05056 0.53184,-2.86416 0.26415,-2.20043 1.48225,-3.1297 2.55684,-1.95057 0.43641,0.47884 0.4374,0.60785 0.0218,2.85341 -0.70446,3.80622 -0.71747,3.93492 -0.44666,4.41546 0.6859,1.21708 -1.41937,1.93355 -2.50725,0.85327 z m -45.88011,-0.41592 c -0.0945,-0.374 0.0724,-1.86413 0.37827,-3.37594 0.30113,-1.48851 0.5475,-3.48122 0.5475,-4.42826 0,-1.59915 -0.0566,-1.77428 -0.79329,-2.45771 -1.56176,-1.44872 -5.02043,-0.98089 -6.9557,0.94086 -0.91414,0.90774 -1.55645,2.37348 -1.19665,2.73076 0.80321,0.7976 -0.49047,2.94801 -1.77353,2.94801 -0.39177,0 -0.85587,-0.1718 -1.03136,-0.38176 -0.90941,-1.08812 0.33998,-5.01059 2.17704,-6.83482 0.53437,-0.53064 1.72886,-1.32111 2.65445,-1.75662 1.44827,-0.68146 1.96775,-0.79185 3.72626,-0.79185 1.68567,0 2.22945,0.10587 3.10624,0.60473 2.98926,1.70078 3.33069,4.34479 1.46137,11.31624 -0.48565,1.81114 -0.73016,2.15591 -1.52895,2.15591 -0.43807,0 -0.64859,-0.18267 -0.77165,-0.66955 z m 49.38863,-12.07572 c -0.63936,-0.48213 -0.9543,-1.57907 -0.9543,-3.32392 0,-3.23237 1.13673,-6.05227 4.78982,-11.88224 3.34271,-5.33463 3.28954,-5.23672 4.02242,-7.40609 0.66814,-1.97778 0.67095,-2.01548 0.21303,-2.85983 -0.42261,-0.77926 -0.42932,-0.91731 -0.0752,-1.54671 0.46736,-0.83073 1.74564,-1.06715 2.37746,-0.43974 0.73206,0.72693 1.02143,2.37913 0.68115,3.88904 -0.38026,1.68732 -1.5059,4.42415 -2.39458,5.82205 -0.37086,0.58339 -0.6743,1.12518 -0.6743,1.204 0,0.0789 -0.59022,1.01188 -1.3116,2.07345 -4.18174,6.15376 -5.64568,10.02777 -4.85873,12.85754 0.18413,0.66214 0.19095,1.14251 0.0206,1.45842 -0.29142,0.54073 -1.21972,0.61862 -1.83584,0.15403 z m -61.29433,-6.84822 c -0.39896,-0.30597 -0.5417,-0.83594 -0.47991,-1.78173 0.0347,-0.53011 1.16737,-1.02291 1.8539,-0.80653 0.58475,0.18429 1.24059,1.37833 1.24059,2.25862 0,0.59311 -0.0912,0.64669 -1.10059,0.64669 -0.60531,0 -1.28661,-0.14267 -1.51399,-0.31705 z m 150.54565,-31.10314 c -0.18789,-0.11827 -0.30283,-0.48746 -0.25542,-0.82044 0.0677,-0.47555 0.26425,-0.62246 0.91632,-0.68489 0.72497,-0.0694 0.83012,-0.004 0.83012,0.51996 0,0.98621 -0.7267,1.46646 -1.49102,0.98537 z"
         id="path3885"
         inkscape:connector-curvature="0" />
    </g>
  </g>
</svg>
